<svg id="svg" version="1.1" xmlns="http://www.w3.org/2000/svg" xmlns:xlink="http://www.w3.org/1999/xlink" width="400" height="400" viewBox="0, 0, 400,400"><g id="svgg"><path id="path0" d="M199.800 134.300 L 199.800 136.400 201.900 136.400 L 204.000 136.400 204.000 134.300 L 204.000 132.200 201.900 132.200 L 199.800 132.200 199.800 134.300 M214.461 138.292 C 210.404 139.440,205.136 143.365,200.868 148.423 C 200.136 149.290,199.476 150.000,199.401 150.000 C 199.119 150.000,198.232 148.060,198.006 146.950 L 197.772 145.800 195.364 145.800 L 192.957 145.800 193.097 146.350 C 194.881 153.343,194.057 160.380,191.112 163.304 C 186.679 167.706,176.693 167.704,174.452 163.302 C 173.237 160.913,173.753 155.574,175.641 151.000 C 176.073 149.955,176.476 148.942,176.536 148.750 C 176.638 148.429,176.432 148.400,174.053 148.400 L 171.459 148.400 170.833 149.758 C 169.283 153.122,168.737 155.711,168.715 159.800 C 168.670 168.392,172.534 171.704,182.600 171.698 C 192.018 171.693,197.860 167.066,198.845 158.834 L 199.080 156.866 200.072 157.483 L 201.064 158.100 207.082 158.159 C 216.860 158.256,222.034 156.869,225.827 153.136 C 229.932 149.094,228.950 141.721,224.000 139.420 C 221.310 138.169,216.787 137.635,214.461 138.292 M221.133 143.555 C 223.679 144.887,223.810 147.731,221.405 149.496 C 217.726 152.197,213.483 153.180,205.437 153.196 L 203.373 153.200 204.306 152.012 C 207.261 148.252,212.309 144.306,215.600 143.184 C 216.614 142.838,220.225 143.081,221.133 143.555 M199.200 231.059 C 197.467 231.454,195.534 232.987,194.675 234.648 C 193.933 236.083,193.814 237.327,193.807 243.743 L 193.800 249.985 184.350 250.043 C 172.940 250.112,172.106 250.313,170.125 253.466 C 168.983 255.284,169.000 255.037,169.000 269.477 L 169.000 282.808 169.450 282.716 C 169.697 282.666,170.395 282.434,171.000 282.202 C 171.605 281.970,172.775 281.556,173.600 281.282 C 174.425 281.008,175.280 280.696,175.500 280.589 C 175.720 280.482,176.755 280.089,177.800 279.717 C 178.845 279.345,180.555 278.725,181.600 278.340 C 185.062 277.064,187.494 276.178,188.000 276.006 C 188.275 275.913,189.130 275.599,189.900 275.309 C 195.180 273.321,197.092 272.821,199.970 272.680 C 203.377 272.512,206.184 272.933,208.900 274.020 C 209.120 274.108,209.705 274.315,210.200 274.480 C 210.695 274.645,211.730 275.018,212.500 275.308 C 213.270 275.599,214.125 275.913,214.400 276.006 C 214.675 276.099,215.755 276.489,216.800 276.873 C 217.845 277.256,219.600 277.891,220.700 278.282 C 221.800 278.674,222.880 279.080,223.100 279.186 C 223.320 279.291,224.265 279.643,225.200 279.968 C 226.135 280.293,227.800 280.886,228.900 281.287 C 230.000 281.687,231.305 282.157,231.800 282.330 C 232.295 282.503,232.857 282.728,233.050 282.830 C 233.493 283.063,233.601 256.842,233.162 255.323 C 232.570 253.271,230.641 251.263,228.500 250.470 C 227.571 250.126,226.823 250.103,217.960 250.149 L 208.419 250.199 208.360 243.249 L 208.300 236.300 207.740 235.100 C 206.229 231.864,202.796 230.239,199.200 231.059 M96.797 262.224 C 96.792 263.395,96.341 266.083,95.698 268.772 L 95.172 270.971 93.859 271.112 C 93.136 271.189,90.195 271.211,87.322 271.161 L 82.098 271.070 82.231 273.051 C 82.304 274.140,82.425 275.091,82.499 275.165 C 82.573 275.239,85.130 275.300,88.182 275.300 L 93.732 275.300 93.121 276.800 C 90.862 282.350,86.413 290.230,83.174 294.418 C 81.724 296.292,81.620 295.974,84.130 297.320 L 86.259 298.463 86.817 297.781 C 89.799 294.141,98.400 277.262,98.400 275.050 C 98.400 274.945,99.368 274.703,100.550 274.513 C 102.596 274.184,106.196 273.432,107.838 272.990 L 108.600 272.785 108.600 270.569 C 108.600 268.365,108.598 268.354,108.150 268.488 C 106.752 268.908,101.563 270.173,100.780 270.284 L 99.861 270.415 100.798 266.758 C 102.180 261.365,102.156 261.870,101.040 261.733 C 100.523 261.670,99.358 261.557,98.450 261.483 L 96.800 261.348 96.797 262.224 M291.716 268.050 C 291.655 268.627,291.285 274.500,290.894 281.100 C 290.145 293.758,290.040 294.866,289.375 297.100 C 288.391 300.404,286.946 301.800,284.510 301.800 L 283.200 301.800 283.200 307.900 L 283.200 314.000 285.500 314.000 L 287.800 314.000 287.800 310.100 L 287.800 306.200 302.100 306.200 L 316.400 306.200 316.400 310.100 L 316.400 314.000 318.700 314.000 L 321.000 314.000 321.000 307.900 L 321.000 301.800 318.600 301.800 L 316.200 301.800 316.200 284.400 L 316.200 267.000 304.014 267.000 L 291.829 267.000 291.716 268.050 M114.397 271.205 L 113.194 272.994 115.375 274.087 C 118.811 275.811,122.525 278.086,125.340 280.192 L 126.180 280.820 127.484 278.871 L 128.788 276.921 127.844 276.246 C 125.762 274.758,119.352 271.100,116.894 269.997 L 115.599 269.416 114.397 271.205 M311.200 286.500 L 311.200 301.600 301.804 301.600 L 292.409 301.600 292.998 300.672 C 294.501 298.301,294.802 296.258,295.598 283.000 C 295.938 277.335,296.262 272.407,296.317 272.050 L 296.418 271.400 303.809 271.400 L 311.200 271.400 311.200 286.500 M197.500 276.786 C 196.950 276.984,195.600 277.476,194.500 277.880 C 193.400 278.284,192.095 278.751,191.600 278.917 C 191.105 279.084,190.520 279.295,190.300 279.386 C 189.448 279.740,188.240 280.195,186.800 280.705 C 185.157 281.287,182.208 282.354,179.100 283.492 C 178.000 283.895,176.380 284.485,175.500 284.803 C 172.331 285.950,171.236 286.367,170.860 286.568 C 170.347 286.843,160.722 290.351,157.628 291.392 C 155.316 292.169,153.808 292.901,153.503 293.395 C 153.431 293.511,153.286 293.553,153.181 293.488 C 153.076 293.423,153.015 293.489,153.045 293.635 C 153.075 293.782,152.966 293.870,152.800 293.833 C 152.635 293.797,152.564 293.831,152.642 293.909 C 152.720 293.987,152.520 294.435,152.197 294.905 C 150.873 296.829,150.745 299.174,151.805 302.110 C 152.041 302.765,152.446 303.885,152.705 304.600 C 152.964 305.315,154.223 308.870,155.505 312.500 C 156.786 316.130,158.359 320.585,159.001 322.400 C 159.642 324.215,161.216 328.670,162.497 332.300 C 163.778 335.930,165.040 339.485,165.300 340.200 C 165.561 340.915,166.016 342.196,166.311 343.046 C 166.989 344.993,167.033 345.026,169.095 345.085 C 170.531 345.127,170.878 345.204,171.265 345.567 C 171.519 345.805,171.827 346.000,171.950 346.000 C 172.277 346.000,176.713 347.652,178.000 348.253 C 179.969 349.173,180.658 349.408,181.032 349.290 C 181.246 349.222,182.557 349.634,184.150 350.269 C 186.782 351.318,188.000 351.715,191.100 352.531 C 192.797 352.978,207.889 353.102,208.419 352.673 C 208.574 352.548,209.015 352.385,209.400 352.309 C 210.565 352.082,214.003 351.010,215.647 350.362 C 216.551 350.005,217.375 349.799,217.629 349.866 C 217.917 349.941,219.182 349.485,221.382 348.511 C 223.207 347.704,225.637 346.723,226.782 346.332 C 227.926 345.941,228.917 345.534,228.984 345.427 C 229.149 345.158,229.928 344.983,231.637 344.830 L 233.089 344.700 233.661 343.100 C 233.975 342.220,234.444 340.915,234.703 340.200 C 235.173 338.901,239.209 327.477,240.532 323.700 C 240.917 322.600,241.506 320.980,241.840 320.100 C 242.174 319.220,242.977 316.993,243.624 315.150 C 246.220 307.755,247.197 304.998,247.998 302.800 C 250.242 296.648,248.588 293.726,241.372 291.090 C 239.684 290.473,238.213 289.894,238.102 289.803 C 237.991 289.712,237.000 289.323,235.900 288.939 C 231.637 287.448,230.167 286.912,228.900 286.386 C 228.680 286.295,228.095 286.084,227.600 285.917 C 226.743 285.629,225.040 285.011,220.800 283.451 C 219.755 283.067,218.225 282.530,217.400 282.258 C 216.575 281.986,214.988 281.412,213.872 280.982 C 212.757 280.552,211.722 280.194,211.572 280.186 C 211.423 280.178,211.480 280.099,211.700 280.011 C 212.012 279.885,211.880 279.819,211.100 279.711 C 210.550 279.635,209.920 279.493,209.700 279.396 C 209.480 279.299,208.895 279.085,208.400 278.920 C 207.905 278.755,206.870 278.381,206.100 278.090 C 205.330 277.798,204.520 277.511,204.300 277.451 C 204.080 277.391,203.798 277.263,203.674 277.166 C 202.715 276.421,199.134 276.201,197.500 276.786 M110.601 280.050 C 110.603 281.399,110.953 289.402,111.103 291.531 L 111.218 293.161 110.359 292.948 C 108.854 292.575,103.297 292.654,101.800 293.071 C 92.124 295.762,92.114 306.531,101.785 308.689 C 109.691 310.454,115.289 307.360,115.592 301.059 L 115.700 298.818 117.400 299.841 C 119.240 300.949,121.427 302.537,123.189 304.045 C 123.800 304.568,124.390 304.994,124.500 304.992 C 124.969 304.981,127.069 301.195,126.747 300.941 C 123.155 298.112,120.120 296.223,117.300 295.063 L 115.456 294.305 115.325 292.102 C 115.254 290.891,115.137 287.447,115.065 284.450 L 114.936 279.000 112.768 279.000 L 110.600 279.000 110.601 280.050 M109.558 296.718 C 111.458 297.110,111.303 296.907,111.284 298.968 C 111.244 303.360,109.396 304.958,104.591 304.760 C 101.062 304.615,99.233 303.404,99.041 301.087 C 98.739 297.450,103.505 295.470,109.558 296.718 " stroke="none" fill="#040404" fill-rule="evenodd"></path><path id="path1" d="M68.621 355.629 C 64.421 356.068,60.659 357.110,55.638 359.226 C 45.063 363.681,42.290 364.301,33.000 364.286 C 26.768 364.276,24.181 363.961,19.700 362.665 C 13.655 360.917,9.212 360.948,4.497 362.772 C 0.689 364.246,0.060 365.114,0.016 368.950 L 0.000 370.400 1.150 370.402 C 7.425 370.413,13.147 371.820,20.300 375.108 C 27.678 378.501,33.099 379.652,40.900 379.481 C 47.110 379.344,53.385 378.141,56.580 376.474 C 56.866 376.325,57.166 376.202,57.246 376.201 C 57.327 376.201,58.182 375.836,59.146 375.391 C 60.111 374.946,61.170 374.459,61.500 374.308 C 70.137 370.354,80.671 369.342,90.449 371.525 C 93.147 372.128,96.172 373.221,100.200 375.051 C 106.764 378.032,110.121 378.951,116.000 379.372 C 122.622 379.846,130.937 378.879,134.625 377.206 C 135.106 376.987,135.610 376.807,135.745 376.804 C 135.879 376.802,136.464 376.583,137.045 376.318 C 143.872 373.202,147.023 371.996,149.862 371.409 C 151.538 371.063,151.815 371.015,153.600 370.763 C 162.438 369.515,171.158 370.945,180.400 375.157 C 187.837 378.546,191.993 379.441,200.300 379.442 C 207.432 379.444,212.734 378.370,217.881 375.881 C 218.200 375.726,218.527 375.600,218.608 375.600 C 218.689 375.600,219.597 375.207,220.627 374.727 C 233.536 368.706,246.585 368.830,260.287 375.104 C 266.578 377.985,270.120 378.941,276.100 379.371 C 283.829 379.928,291.171 378.864,296.748 376.378 C 297.214 376.170,297.645 376.000,297.706 376.000 C 297.767 376.000,298.375 375.741,299.058 375.424 C 302.864 373.659,303.792 373.280,306.600 372.343 C 313.573 370.016,323.349 369.773,331.400 371.728 C 333.296 372.188,337.194 373.660,340.063 374.998 C 341.740 375.780,344.959 377.123,346.027 377.485 C 354.012 380.196,366.553 380.146,374.183 377.375 C 374.797 377.151,375.525 376.898,375.800 376.811 C 376.277 376.660,376.764 376.448,379.506 375.194 C 380.169 374.891,381.294 374.400,382.006 374.104 C 382.718 373.808,383.542 373.448,383.838 373.304 C 386.638 371.943,392.336 370.756,397.370 370.485 L 400.040 370.341 399.940 368.721 C 399.885 367.829,399.733 366.551,399.604 365.880 L 399.368 364.660 397.834 363.850 C 393.338 361.478,387.310 360.710,382.900 361.949 C 375.434 364.047,373.757 364.290,366.800 364.290 C 358.944 364.290,355.049 363.592,348.900 361.081 C 347.140 360.362,344.370 359.232,342.745 358.570 C 331.387 353.945,317.798 354.187,305.838 359.226 C 295.338 363.649,292.497 364.290,283.400 364.290 C 277.510 364.290,275.138 364.040,271.021 362.982 C 268.835 362.420,267.695 361.990,259.664 358.701 C 248.032 353.938,234.536 354.128,222.438 359.226 C 211.938 363.649,209.097 364.290,200.000 364.290 C 194.110 364.290,191.738 364.040,187.621 362.982 C 185.435 362.420,184.295 361.990,176.264 358.701 C 164.632 353.938,151.136 354.128,139.038 359.226 C 129.198 363.371,126.076 364.135,118.100 364.346 C 109.944 364.562,104.585 363.585,97.464 360.586 C 89.352 357.169,86.451 356.279,81.579 355.712 C 78.654 355.372,71.518 355.326,68.621 355.629 " stroke="none" fill="#3494d4" fill-rule="evenodd"></path><path id="path2" d="M136.352 160.703 C 120.712 162.597,108.930 170.370,100.894 184.098 C 100.699 184.432,100.582 184.433,98.694 184.127 C 83.806 181.710,70.017 184.253,57.961 191.640 C 53.005 194.677,51.480 198.035,53.306 201.893 C 55.367 206.252,59.827 206.996,64.786 203.810 C 71.260 199.651,78.161 197.500,86.396 197.075 C 89.535 196.912,89.478 196.583,86.850 199.707 C 76.968 211.456,71.300 226.977,71.184 242.603 C 71.165 245.141,71.232 246.096,71.472 246.752 C 73.222 251.533,79.353 252.866,82.969 249.251 C 84.504 247.715,84.817 246.649,85.010 242.300 C 85.502 231.234,88.194 222.429,93.746 213.726 L 94.745 212.160 94.890 213.830 C 95.480 220.639,98.772 233.869,100.658 237.015 C 103.345 241.497,110.108 241.245,112.600 236.570 C 113.719 234.470,113.688 233.071,112.438 229.200 C 109.405 219.815,107.747 209.364,108.104 201.881 C 108.266 198.482,108.082 198.773,110.400 198.249 C 120.656 195.934,131.423 196.538,138.381 199.820 C 141.982 201.518,144.268 201.541,146.734 199.904 C 150.226 197.585,150.676 192.311,147.635 189.343 C 143.852 185.652,131.570 182.675,121.700 183.055 L 118.900 183.163 119.900 182.280 C 125.236 177.568,132.062 174.941,140.867 174.210 C 146.734 173.724,149.862 169.253,147.702 164.440 C 146.082 160.831,143.183 159.877,136.352 160.703 M254.118 175.680 C 248.568 178.033,248.460 185.835,253.942 188.345 C 254.868 188.769,255.488 188.870,258.066 189.020 C 267.019 189.538,273.164 191.749,279.077 196.581 C 281.326 198.419,281.337 198.324,278.852 198.485 C 268.641 199.148,257.734 202.733,252.658 207.094 C 249.248 210.023,249.946 216.091,253.939 218.242 C 256.574 219.661,258.916 219.426,262.088 217.422 C 268.149 213.595,277.363 211.634,286.658 212.193 C 291.070 212.459,290.916 212.418,291.081 213.362 C 292.156 219.517,290.702 233.453,288.056 242.361 C 286.616 247.207,286.807 249.257,288.915 251.590 C 292.072 255.084,298.284 254.155,300.212 249.900 C 301.760 246.482,303.847 236.916,304.682 229.400 L 305.116 225.500 306.525 227.600 C 310.322 233.258,313.134 239.819,314.498 246.200 C 315.909 252.805,317.561 254.700,321.904 254.700 C 326.943 254.700,329.560 250.978,328.513 245.300 C 326.302 233.311,320.558 221.671,312.227 212.300 C 311.267 211.219,311.060 210.884,311.323 210.829 C 311.938 210.701,316.053 211.207,318.600 211.724 C 321.673 212.348,323.218 212.308,324.830 211.563 C 329.015 209.629,330.110 204.097,326.979 200.701 C 323.509 196.936,308.387 195.751,298.900 198.502 C 298.568 198.598,298.336 198.343,297.538 197.006 C 289.576 183.678,275.470 175.725,259.000 175.279 C 255.388 175.182,255.272 175.191,254.118 175.680 M171.402 183.242 C 167.781 184.632,166.114 189.176,167.909 192.763 C 169.008 194.960,170.333 195.879,173.589 196.700 C 176.073 197.326,178.316 198.093,180.492 199.060 L 182.085 199.768 180.942 200.284 C 180.314 200.568,179.283 201.033,178.650 201.318 C 172.697 204.001,162.384 211.508,160.397 214.605 C 157.378 219.309,160.648 225.320,166.210 225.291 C 168.467 225.279,169.556 224.753,172.040 222.474 C 174.844 219.901,181.780 214.910,182.100 215.234 C 182.136 215.271,181.726 216.320,181.189 217.567 C 179.204 222.178,178.929 224.144,179.948 226.435 C 181.658 230.278,186.615 231.599,190.261 229.184 C 191.556 228.326,192.130 227.466,193.305 224.622 C 193.877 223.235,194.638 221.470,194.996 220.700 C 195.353 219.930,195.846 218.850,196.091 218.300 C 196.541 217.291,198.942 213.186,200.212 211.254 C 201.047 209.984,200.905 209.989,204.394 211.112 C 212.639 213.767,219.481 218.058,223.483 223.085 C 228.014 228.776,235.975 226.806,236.352 219.900 C 236.629 214.814,228.506 206.822,217.741 201.591 L 215.382 200.444 216.341 200.227 C 222.733 198.781,229.107 199.475,236.000 202.369 C 245.081 206.180,250.957 193.975,242.028 189.847 C 228.178 183.445,212.596 184.326,200.035 192.221 L 198.133 193.416 197.416 192.888 C 188.376 186.226,175.789 181.558,171.402 183.242 " stroke="none" fill="#0cbb33" fill-rule="evenodd"></path><path id="path3" d="M83.300 66.207 C 53.508 68.185,33.471 98.461,43.228 126.758 C 54.247 158.713,94.883 168.200,118.820 144.405 C 146.739 116.652,129.006 69.031,89.700 66.205 C 86.686 65.988,86.603 65.988,83.300 66.207 M148.000 299.878 C 126.593 309.142,108.205 324.348,95.022 343.688 C 94.127 345.001,93.464 346.134,93.548 346.205 C 93.631 346.277,94.285 346.541,95.000 346.791 C 95.715 347.042,98.010 348.008,100.100 348.937 C 108.373 352.615,113.039 353.572,121.600 353.343 C 129.019 353.146,132.349 352.309,140.900 348.494 C 148.846 344.949,157.057 343.632,165.300 344.582 C 166.070 344.670,166.722 344.727,166.748 344.707 C 166.791 344.675,166.046 342.528,164.699 338.800 C 164.441 338.085,163.915 336.600,163.530 335.500 C 162.203 331.702,158.172 320.296,157.699 319.000 C 157.438 318.285,156.178 314.730,154.898 311.100 C 153.618 307.470,152.387 304.005,152.163 303.400 C 151.499 301.608,151.369 301.163,151.129 299.862 L 150.900 298.623 148.000 299.878 M248.896 301.842 C 248.620 302.574,246.717 311.021,245.775 315.694 L 244.700 321.028 244.100 320.906 C 242.155 320.511,241.824 320.526,241.622 321.024 C 241.353 321.685,240.715 323.476,238.600 329.500 C 237.596 332.360,236.562 335.285,236.302 336.000 C 236.042 336.715,235.500 338.245,235.098 339.400 C 234.696 340.555,234.100 342.208,233.773 343.072 C 233.068 344.934,232.974 344.781,234.700 344.582 C 243.288 343.593,251.126 344.929,260.025 348.898 C 270.025 353.359,278.710 354.501,288.800 352.684 C 292.091 352.091,299.984 349.296,300.871 348.409 C 301.088 348.192,297.618 342.898,294.769 339.100 C 283.351 323.881,268.724 311.601,251.747 302.981 C 249.804 301.995,248.965 301.659,248.896 301.842 M230.214 345.018 C 229.727 345.113,229.232 345.289,229.114 345.408 C 228.961 345.562,228.988 345.590,229.206 345.507 C 229.374 345.443,230.139 345.267,230.906 345.114 C 231.673 344.962,232.030 344.839,231.700 344.841 C 231.370 344.842,230.701 344.922,230.214 345.018 M169.300 345.088 C 169.818 345.317,171.045 345.566,170.883 345.409 C 170.782 345.311,170.340 345.179,169.900 345.115 C 169.460 345.052,169.190 345.039,169.300 345.088 M181.200 349.287 C 181.200 349.487,183.612 350.523,185.899 351.304 C 188.096 352.055,191.464 352.865,191.302 352.603 C 191.249 352.517,190.776 352.382,190.252 352.304 C 188.634 352.062,186.384 351.283,181.450 349.260 C 181.313 349.203,181.200 349.216,181.200 349.287 M216.400 350.139 C 215.451 350.480,214.352 351.018,214.435 351.102 C 214.523 351.189,216.980 350.275,217.183 350.080 C 217.299 349.969,216.763 350.009,216.400 350.139 M212.265 351.583 C 210.669 352.088,209.708 352.581,210.900 352.283 C 212.536 351.874,214.275 351.272,214.099 351.175 C 213.989 351.115,213.164 351.299,212.265 351.583 M209.300 352.343 C 208.629 352.504,208.548 352.738,209.196 352.643 C 209.531 352.594,209.854 352.474,209.914 352.377 C 210.029 352.191,209.950 352.186,209.300 352.343 M195.000 353.207 C 195.715 353.287,197.965 353.353,200.000 353.353 C 202.035 353.353,204.285 353.287,205.000 353.207 C 205.764 353.121,203.704 353.061,200.000 353.061 C 196.296 353.061,194.236 353.121,195.000 353.207 " stroke="none" fill="#f4c938" fill-rule="evenodd"></path><path id="path4" d="M251.562 81.909 C 238.784 85.008,237.016 102.774,248.934 108.329 C 251.743 109.638,250.875 109.591,272.800 109.620 C 283.745 109.635,292.520 109.685,292.300 109.732 C 279.121 112.550,276.903 130.489,289.016 136.294 C 291.949 137.700,289.301 137.618,329.800 137.556 L 366.300 137.500 368.100 136.795 C 381.019 131.738,379.999 113.436,366.600 109.871 C 365.420 109.557,363.493 109.518,345.800 109.446 C 326.908 109.370,326.334 109.357,327.406 109.019 C 340.619 104.853,340.096 85.426,326.678 81.994 C 324.658 81.478,253.673 81.397,251.562 81.909 M73.200 344.695 C 68.772 345.341,65.644 346.305,60.500 348.608 C 48.440 354.009,37.634 354.899,26.360 351.420 C 15.485 348.064,4.563 353.345,1.008 363.677 L 0.640 364.747 1.759 364.073 C 6.724 361.083,12.629 360.620,19.700 362.665 C 24.181 363.961,26.768 364.276,33.000 364.286 C 42.290 364.301,45.063 363.681,55.638 359.226 C 62.720 356.242,66.975 355.400,74.971 355.400 C 83.528 355.401,87.118 356.229,97.464 360.586 C 104.585 363.585,109.944 364.562,118.100 364.346 C 126.076 364.135,129.198 363.371,139.038 359.226 C 151.136 354.128,164.632 353.938,176.264 358.701 C 184.295 361.990,185.435 362.420,187.621 362.982 C 191.738 364.040,194.110 364.290,200.000 364.290 C 209.097 364.290,211.938 363.649,222.438 359.226 C 234.536 354.128,248.032 353.938,259.664 358.701 C 267.695 361.990,268.835 362.420,271.021 362.982 C 275.138 364.040,277.510 364.290,283.400 364.290 C 292.497 364.290,295.338 363.649,305.838 359.226 C 317.936 354.128,331.432 353.938,343.064 358.701 C 351.095 361.990,352.235 362.420,354.421 362.982 C 358.538 364.040,360.910 364.290,366.800 364.290 C 373.757 364.290,375.434 364.047,382.900 361.949 C 387.317 360.708,393.624 361.528,397.948 363.904 L 399.248 364.619 399.116 364.059 C 396.821 354.363,383.884 347.810,373.955 351.316 C 363.812 354.897,351.798 354.038,340.200 348.901 C 331.927 345.236,328.175 344.400,320.000 344.400 C 311.898 344.400,307.199 345.436,300.500 348.699 C 292.242 352.722,285.518 354.057,276.650 353.437 C 270.048 352.974,267.329 352.252,260.000 349.009 C 246.197 342.902,234.587 342.754,221.559 348.521 C 219.721 349.334,218.133 350.000,218.030 350.000 C 217.927 350.000,216.926 350.363,215.805 350.808 C 206.371 354.547,193.252 354.497,183.943 350.686 C 182.709 350.181,181.430 349.695,181.100 349.606 C 180.427 349.425,179.468 349.031,177.700 348.210 C 177.040 347.903,175.420 347.273,174.100 346.809 C 172.780 346.345,171.547 345.885,171.360 345.787 C 169.748 344.943,161.381 344.250,156.728 344.574 C 150.083 345.038,147.255 345.799,139.600 349.187 C 125.982 355.214,113.975 355.194,100.244 349.120 C 98.123 348.182,95.741 347.181,94.951 346.896 C 94.161 346.611,93.421 346.300,93.307 346.206 C 93.040 345.984,90.152 345.241,88.100 344.867 C 85.773 344.442,75.729 344.326,73.200 344.695 " stroke="none" fill="#3c9cfb" fill-rule="evenodd"></path><path id="path5" d="M115.000 197.412 C 111.511 197.938,108.426 198.643,108.312 198.942 C 108.259 199.080,108.154 200.702,108.079 202.547 L 107.944 205.900 110.510 208.900 C 129.741 231.380,148.054 262.748,157.097 288.700 C 157.519 289.910,157.934 290.980,158.019 291.077 C 158.150 291.227,170.067 287.053,170.796 286.602 C 171.183 286.363,169.790 282.682,169.342 282.759 C 169.056 282.808,169.000 282.649,169.000 281.784 C 169.000 278.952,159.365 257.639,152.597 245.500 C 142.989 228.268,131.875 212.238,120.444 199.129 C 118.321 196.694,118.788 196.841,115.000 197.412 M199.776 211.951 C 199.157 212.913,198.038 214.764,197.289 216.064 L 195.927 218.428 196.142 219.364 C 196.260 219.879,196.810 222.235,197.365 224.600 C 197.920 226.965,198.473 229.405,198.595 230.023 L 198.817 231.145 199.758 230.960 C 202.999 230.321,206.311 232.039,207.740 235.100 L 208.300 236.300 208.360 243.250 L 208.419 250.200 212.019 250.200 L 215.618 250.200 215.515 249.550 C 215.459 249.193,215.312 247.910,215.189 246.700 C 214.143 236.402,209.829 214.181,208.585 212.682 C 208.357 212.407,201.833 210.199,201.254 210.201 C 201.029 210.202,200.491 210.837,199.776 211.951 M280.659 212.134 C 279.478 212.232,279.301 212.414,275.066 217.900 C 262.481 234.200,251.632 253.299,244.051 272.500 C 241.307 279.449,240.483 282.000,240.981 282.000 C 241.325 282.000,240.965 282.752,240.526 282.952 C 240.052 283.168,237.856 289.541,238.155 289.831 C 238.235 289.909,239.682 290.476,241.370 291.091 C 249.143 293.925,250.294 296.450,247.437 304.400 C 246.666 306.545,245.480 309.875,244.802 311.800 C 244.124 313.725,243.141 316.489,242.617 317.942 C 242.093 319.395,241.738 320.538,241.830 320.482 C 241.921 320.425,242.539 320.486,243.204 320.617 C 244.728 320.917,244.512 321.315,245.512 316.356 C 246.976 309.097,248.597 302.163,248.999 301.438 C 249.102 301.252,249.643 299.480,250.200 297.500 C 257.778 270.582,271.891 243.518,289.542 222.054 L 291.400 219.795 291.397 218.147 C 291.392 215.892,291.042 212.750,290.778 212.586 C 290.318 212.302,282.718 211.962,280.659 212.134 M211.600 280.122 C 213.152 280.749,215.858 281.800,215.921 281.800 C 215.964 281.800,216.000 281.571,216.000 281.291 C 216.000 280.993,215.897 280.802,215.750 280.829 C 215.613 280.855,215.185 280.799,214.800 280.706 C 214.415 280.612,213.920 280.513,213.700 280.485 C 213.480 280.456,213.300 280.419,213.300 280.401 C 213.300 280.338,212.688 280.196,212.000 280.099 C 211.615 280.045,211.435 280.055,211.600 280.122 " stroke="none" fill="#754021" fill-rule="evenodd"></path><path id="path6" d="" stroke="none" fill="#aeb885" fill-rule="evenodd"></path><path id="path7" d="M118.850 353.548 C 119.483 353.587,120.517 353.587,121.150 353.548 C 121.783 353.508,121.265 353.476,120.000 353.476 C 118.735 353.476,118.218 353.508,118.850 353.548 M198.850 353.548 C 199.483 353.587,200.518 353.587,201.150 353.548 C 201.783 353.508,201.265 353.476,200.000 353.476 C 198.735 353.476,198.218 353.508,198.850 353.548 M278.950 353.547 C 279.528 353.588,280.473 353.588,281.050 353.547 C 281.627 353.507,281.155 353.474,280.000 353.474 C 278.845 353.474,278.373 353.507,278.950 353.547 " stroke="none" fill="#9cb4a4" fill-rule="evenodd"></path><path id="path8" d="M244.600 320.585 C 244.600 320.687,244.443 320.812,244.250 320.862 C 243.987 320.931,244.011 320.959,244.350 320.977 C 244.627 320.991,244.800 320.885,244.800 320.700 C 244.800 320.535,244.755 320.400,244.700 320.400 C 244.645 320.400,244.600 320.483,244.600 320.585 " stroke="none" fill="#9c6c24" fill-rule="evenodd"></path></g></svg>