<svg id="svg" version="1.1" xmlns="http://www.w3.org/2000/svg" xmlns:xlink="http://www.w3.org/1999/xlink" width="400" height="133.33333333333334" viewBox="0, 0, 400,133.33333333333334"><g id="svgg"><path id="path0" d="M87.438 27.409 C 86.719 27.668,85.706 28.429,85.430 28.917 C 85.331 29.092,85.156 29.338,85.042 29.463 C 84.496 30.058,84.394 33.026,84.887 33.956 C 85.401 34.926,86.229 35.710,87.248 36.193 L 88.250 36.666 94.500 36.678 C 99.120 36.686,100.652 36.736,100.375 36.870 C 100.169 36.970,100.000 37.114,100.000 37.192 C 100.000 37.270,99.915 37.333,99.811 37.333 C 99.707 37.333,99.427 37.540,99.189 37.792 C 96.905 40.213,97.605 44.094,100.583 45.521 L 101.583 46.000 114.000 45.996 C 127.760 45.992,126.940 46.054,128.441 44.910 C 130.423 43.398,130.640 39.878,128.872 37.917 C 127.613 36.520,127.259 36.456,120.167 36.346 C 115.257 36.270,114.006 36.208,114.333 36.057 C 117.506 34.593,117.506 29.837,114.333 27.652 L 113.750 27.250 100.917 27.213 C 90.285 27.182,87.973 27.216,87.438 27.409 M27.250 115.080 C 26.425 115.298,25.225 115.713,24.583 116.002 C 22.577 116.907,21.792 117.175,20.417 117.424 C 18.039 117.856,14.706 117.634,12.612 116.906 C 8.950 115.633,4.167 118.996,4.167 122.843 L 4.167 123.467 5.208 123.579 C 6.660 123.734,8.554 124.124,9.204 124.401 C 14.045 126.467,14.508 126.586,17.667 126.574 C 20.609 126.563,21.689 126.319,24.583 125.006 C 26.155 124.293,26.615 124.137,27.897 123.879 C 29.632 123.531,32.380 123.536,34.037 123.892 C 35.218 124.145,35.629 124.284,37.083 124.923 C 40.371 126.369,41.201 126.558,44.250 126.564 C 47.280 126.569,48.325 126.337,51.250 125.005 C 53.583 123.943,55.173 123.586,57.583 123.586 C 59.928 123.586,61.498 123.927,63.750 124.922 C 66.918 126.323,67.954 126.567,70.750 126.576 C 73.676 126.585,75.887 126.094,77.872 124.994 C 79.331 124.186,81.903 123.618,84.167 123.605 C 86.705 123.591,88.042 123.872,90.417 124.922 C 93.626 126.341,94.553 126.559,97.417 126.573 C 100.342 126.586,102.548 126.097,104.539 124.994 C 105.998 124.186,108.570 123.618,110.833 123.605 C 113.319 123.591,114.759 123.895,117.083 124.922 C 120.253 126.323,121.213 126.549,124.083 126.568 C 127.090 126.588,128.392 126.304,131.250 125.007 C 131.617 124.840,132.208 124.580,132.563 124.428 C 133.234 124.141,135.047 123.768,136.708 123.574 L 137.667 123.462 137.659 122.856 C 137.650 122.050,137.319 120.839,136.958 120.290 C 136.798 120.045,136.664 119.786,136.661 119.714 C 136.643 119.266,134.735 117.686,133.583 117.166 C 132.439 116.650,130.327 116.523,129.222 116.904 C 126.469 117.854,121.655 117.875,119.492 116.947 C 114.785 114.925,113.810 114.667,110.903 114.667 C 108.688 114.667,106.091 115.191,105.083 115.842 C 101.515 118.147,96.101 118.515,91.876 116.738 C 86.145 114.329,82.092 114.201,77.917 116.298 C 73.613 118.459,69.121 118.400,63.499 116.107 C 58.943 114.250,55.260 114.397,50.317 116.633 C 45.806 118.673,41.654 118.317,35.250 115.343 C 33.513 114.536,29.769 114.413,27.250 115.080 " stroke="none" fill="#3898ec" fill-rule="evenodd"></path><path id="path1" d="M30.250 22.164 C 28.365 22.656,27.680 22.865,27.167 23.104 C 22.627 25.220,19.885 28.272,18.374 32.889 C 17.454 35.697,17.997 43.027,19.177 43.757 C 19.263 43.810,19.333 43.958,19.333 44.086 C 19.333 44.326,19.703 44.935,20.787 46.480 C 21.442 47.411,24.088 50.000,24.386 50.000 C 24.480 50.000,24.675 50.102,24.820 50.226 C 28.020 52.973,35.580 53.418,39.917 51.116 C 40.100 51.018,40.475 50.827,40.750 50.690 C 42.414 49.861,44.953 47.448,46.126 45.583 C 46.795 44.518,47.998 41.772,48.006 41.293 C 48.009 41.086,48.121 40.467,48.253 39.917 C 48.736 37.919,48.415 34.130,47.584 32.000 C 46.915 30.284,45.673 28.121,44.941 27.394 C 44.745 27.199,44.321 26.755,44.001 26.407 C 43.113 25.445,41.234 24.123,39.760 23.425 C 38.565 22.859,37.788 22.596,36.000 22.153 C 35.286 21.976,30.941 21.984,30.250 22.164 M53.667 99.787 C 52.646 100.251,49.829 101.675,49.280 102.006 C 48.988 102.181,48.459 102.495,48.102 102.704 C 47.040 103.327,46.976 103.370,45.332 104.596 C 44.462 105.245,43.346 106.145,42.852 106.596 C 42.358 107.047,41.820 107.511,41.656 107.626 C 41.345 107.844,38.973 110.451,38.048 111.591 C 36.491 113.511,36.000 114.159,36.000 114.296 C 36.000 114.380,35.848 114.586,35.663 114.754 C 35.099 115.264,34.961 115.176,38.774 116.744 C 42.463 118.261,46.848 118.119,50.767 116.354 C 53.514 115.117,54.130 114.974,57.114 114.880 L 59.812 114.795 59.417 113.689 C 59.200 113.081,58.374 110.746,57.582 108.500 C 56.790 106.254,55.871 103.667,55.541 102.750 C 55.210 101.833,54.853 100.750,54.745 100.342 C 54.518 99.475,54.441 99.436,53.667 99.787 M86.794 102.457 C 86.554 103.535,86.234 105.003,86.082 105.719 C 85.809 107.006,85.801 107.019,85.348 106.920 C 84.892 106.820,84.887 106.829,84.021 109.285 C 83.543 110.641,82.904 112.436,82.601 113.275 L 82.050 114.800 84.733 114.867 C 87.686 114.942,88.104 115.045,91.868 116.633 C 95.389 118.119,99.698 118.152,103.167 116.720 C 104.892 116.008,104.803 116.099,104.363 115.505 C 104.163 115.235,104.000 114.970,104.000 114.916 C 104.000 114.863,103.687 114.391,103.303 113.868 C 99.283 108.378,94.544 104.229,88.833 101.201 C 87.157 100.312,87.288 100.231,86.794 102.457 " stroke="none" fill="#f4c938" fill-rule="evenodd"></path><path id="path2" d="M49.583 53.415 C 49.492 53.445,48.817 53.597,48.083 53.753 C 43.822 54.656,39.048 58.098,37.944 61.063 C 37.844 61.331,37.715 61.361,37.039 61.269 C 33.156 60.743,28.464 61.250,26.072 62.455 C 24.059 63.468,23.483 63.790,22.879 64.233 C 20.060 66.304,22.856 70.102,25.758 68.143 C 27.634 66.877,29.962 66.065,32.191 65.898 L 33.750 65.781 33.152 66.444 C 30.105 69.826,28.000 75.509,28.000 80.356 L 28.000 82.552 28.674 83.192 C 29.811 84.275,31.585 84.036,32.375 82.694 C 32.585 82.338,32.667 81.838,32.667 80.917 C 32.667 78.504,33.446 75.440,34.702 72.917 C 35.661 70.990,35.781 70.909,35.910 72.104 C 36.200 74.771,37.361 78.686,38.101 79.495 C 38.614 80.054,38.696 80.083,39.734 80.083 C 41.864 80.083,42.648 78.396,41.708 75.833 C 40.987 73.866,40.330 69.759,40.332 67.231 L 40.333 66.212 41.375 65.981 C 43.832 65.436,48.275 65.781,50.258 66.670 C 52.955 67.880,55.130 65.980,53.875 63.510 C 53.199 62.179,49.491 61.000,45.802 60.942 C 44.913 60.928,44.238 60.873,44.302 60.821 C 46.169 59.262,48.136 58.529,51.743 58.049 C 53.993 57.749,54.589 55.032,52.687 53.740 C 52.132 53.363,50.316 53.172,49.583 53.415 M88.649 58.583 C 87.761 59.065,87.215 60.386,87.520 61.312 C 87.954 62.624,88.852 63.085,91.309 63.254 C 93.452 63.401,95.513 64.209,97.000 65.486 L 97.583 65.986 97.116 65.993 C 94.779 66.027,90.416 67.453,88.787 68.715 C 86.223 70.700,88.489 74.297,91.333 72.757 C 93.104 71.799,94.018 71.465,95.930 71.077 C 99.735 70.307,101.252 70.495,101.382 71.753 C 101.564 73.519,100.977 78.135,100.294 80.310 C 99.457 82.973,100.113 84.486,102.167 84.634 C 103.194 84.709,103.935 84.284,104.397 83.355 C 104.900 82.345,106.000 77.335,106.000 76.055 L 106.000 75.426 106.291 75.838 C 107.441 77.466,108.453 79.821,109.011 82.167 C 109.504 84.242,110.189 85.000,111.569 85.000 C 113.554 85.000,114.422 83.330,113.707 80.887 C 113.524 80.262,113.280 79.392,113.164 78.954 C 113.049 78.516,112.890 78.118,112.810 78.069 C 112.731 78.020,112.667 77.863,112.667 77.720 C 112.667 76.883,110.693 73.510,108.894 71.271 C 108.335 70.575,108.200 70.319,108.428 70.386 C 112.231 71.499,114.949 69.967,113.729 67.397 C 113.020 65.901,108.999 65.091,105.556 65.750 C 103.810 66.084,103.785 66.081,103.427 65.458 C 101.920 62.837,98.894 60.392,95.711 59.225 C 93.563 58.438,89.582 58.076,88.649 58.583 M61.061 61.153 C 60.233 61.658,60.000 62.120,60.000 63.257 C 60.000 64.731,60.415 65.142,62.583 65.819 C 64.824 66.518,64.837 66.531,63.795 67.012 C 62.404 67.653,60.030 69.172,59.209 69.946 C 59.095 70.053,58.833 70.278,58.626 70.446 C 56.691 72.012,56.901 74.543,59.013 75.126 C 59.980 75.393,60.572 75.198,61.665 74.251 C 63.014 73.083,64.667 71.933,64.667 72.163 C 64.667 72.264,64.517 72.641,64.333 73.000 C 63.328 74.971,64.266 76.750,66.310 76.750 C 67.776 76.750,68.239 76.371,68.919 74.616 C 69.863 72.182,70.073 71.768,71.249 70.042 C 71.647 69.457,76.735 72.377,78.473 74.189 C 80.531 76.335,83.167 75.757,83.167 73.158 C 83.167 71.550,80.270 68.669,77.295 67.317 C 76.177 66.808,76.433 66.667,78.469 66.667 C 80.031 66.667,80.439 66.731,81.751 67.184 C 84.363 68.085,85.382 67.959,86.142 66.640 C 88.629 62.319,77.805 60.043,71.596 63.582 L 70.305 64.317 69.335 63.654 C 66.335 61.606,62.312 60.390,61.061 61.153 " stroke="none" fill="#0cbb33" fill-rule="evenodd"></path><path id="path3" d="M70.667 44.750 L 70.667 45.500 71.500 45.500 L 72.333 45.500 72.333 44.750 L 72.333 44.000 71.500 44.000 L 70.667 44.000 70.667 44.750 M298.583 45.198 C 297.321 45.612,297.422 43.881,297.370 65.917 C 297.345 76.733,297.365 85.751,297.414 85.955 C 297.827 87.651,300.395 87.842,301.010 86.223 C 301.096 85.997,301.167 85.019,301.167 84.050 L 301.167 82.288 301.528 82.769 C 304.888 87.246,310.849 88.919,316.167 86.880 C 316.762 86.651,317.362 86.375,317.500 86.266 C 317.637 86.158,317.956 85.966,318.208 85.840 C 318.460 85.714,318.667 85.548,318.667 85.472 C 318.667 85.396,318.762 85.333,318.880 85.333 C 318.997 85.333,319.206 85.202,319.345 85.042 C 319.483 84.881,319.819 84.562,320.090 84.331 C 320.580 83.916,321.598 82.708,322.265 81.750 C 322.457 81.475,322.896 80.654,323.241 79.926 C 323.812 78.722,324.028 78.084,324.540 76.083 C 324.760 75.225,324.758 69.623,324.538 68.750 C 324.445 68.383,324.253 67.654,324.112 67.130 C 321.366 56.965,308.367 53.869,301.980 61.859 L 301.167 62.876 301.167 54.666 C 301.167 46.774,301.154 46.435,300.837 45.922 C 300.562 45.478,299.518 44.918,299.147 45.017 C 299.112 45.026,298.858 45.108,298.583 45.198 M74.417 46.549 C 73.830 46.862,72.850 47.649,72.046 48.451 L 70.676 49.819 70.478 49.160 L 70.281 48.500 69.387 48.500 L 68.494 48.500 68.618 48.958 C 68.834 49.755,68.756 53.042,68.510 53.490 C 67.120 56.029,62.660 56.120,62.378 53.616 C 62.274 52.693,62.586 51.014,63.025 50.132 C 63.438 49.303,63.463 49.333,62.363 49.333 L 61.392 49.333 61.043 50.042 C 60.174 51.805,60.217 54.940,61.126 56.020 C 61.901 56.941,62.714 57.228,64.763 57.301 C 68.118 57.422,70.324 55.888,70.627 53.224 C 70.706 52.535,70.709 52.532,71.207 52.706 C 72.120 53.024,76.630 52.773,77.494 52.355 C 77.899 52.160,78.314 52.000,78.418 52.000 C 78.755 52.000,79.949 50.860,80.228 50.272 C 81.689 47.193,77.833 44.722,74.417 46.549 M140.752 47.734 C 140.514 47.954,140.247 48.385,140.160 48.691 C 139.934 49.478,139.947 85.053,140.173 85.867 C 140.557 87.247,139.818 87.167,152.069 87.167 L 162.926 87.167 163.463 86.676 C 164.491 85.737,164.064 84.052,162.701 83.673 C 162.313 83.566,158.724 83.502,153.042 83.501 L 144.000 83.500 144.000 66.006 L 144.000 48.512 143.483 47.922 C 142.809 47.155,141.475 47.063,140.752 47.734 M77.798 47.940 C 78.477 48.122,78.769 48.953,78.322 49.429 C 77.566 50.234,76.474 50.641,74.530 50.845 C 72.144 51.095,72.113 51.075,73.184 49.977 C 74.996 48.118,76.305 47.540,77.798 47.940 M177.417 57.726 C 172.416 59.175,168.746 63.491,167.762 69.083 C 167.272 71.866,167.581 76.451,168.387 78.346 C 169.243 80.360,169.497 80.865,170.205 81.954 C 171.361 83.733,172.458 84.777,174.586 86.126 C 174.916 86.336,175.249 86.496,176.317 86.960 C 178.547 87.929,183.046 87.990,185.083 87.078 C 185.358 86.955,185.846 86.737,186.167 86.595 C 186.974 86.235,187.906 85.661,187.972 85.482 C 188.003 85.400,188.117 85.333,188.227 85.333 C 188.336 85.333,188.546 85.202,188.693 85.042 C 188.840 84.881,189.344 84.382,189.814 83.932 C 190.283 83.483,190.667 83.046,190.667 82.962 C 190.667 82.878,190.771 82.705,190.899 82.577 C 191.098 82.378,191.140 82.633,191.191 84.341 C 191.250 86.328,191.252 86.340,191.750 86.746 C 192.442 87.311,193.558 87.311,194.250 86.746 L 194.750 86.338 194.750 72.571 L 194.750 58.804 194.282 58.402 C 193.562 57.783,192.389 57.833,191.740 58.511 C 191.271 58.999,191.246 59.102,191.167 60.886 L 191.083 62.750 190.699 62.132 C 188.423 58.472,182.091 56.371,177.417 57.726 M214.167 57.732 C 213.479 57.949,212.571 58.304,212.148 58.521 C 210.544 59.345,210.000 59.679,210.000 59.837 C 210.000 59.927,209.906 60.000,209.792 60.001 C 209.677 60.001,209.096 60.506,208.500 61.122 L 207.417 62.243 207.319 60.825 C 207.146 58.298,205.537 57.263,204.067 58.733 L 203.500 59.300 203.500 72.559 C 203.500 87.929,203.397 87.167,205.479 87.167 C 207.311 87.167,207.333 87.032,207.333 76.218 C 207.333 67.419,207.338 67.301,207.700 66.448 C 210.374 60.135,220.026 58.740,222.937 64.245 C 223.935 66.132,224.000 66.905,224.000 76.954 L 224.000 86.178 224.506 86.672 C 225.387 87.533,226.893 87.300,227.476 86.212 C 228.129 84.992,227.626 65.276,226.898 63.539 C 225.489 60.182,224.089 58.759,221.250 57.799 C 219.618 57.247,215.817 57.211,214.167 57.732 M244.667 57.739 C 241.726 58.554,239.249 60.242,237.436 62.667 C 236.792 63.528,236.650 63.752,236.220 64.583 C 236.125 64.767,235.925 65.153,235.775 65.441 C 232.889 70.983,234.493 80.089,239.071 84.151 C 239.340 84.389,239.680 84.696,239.827 84.833 C 240.860 85.798,243.479 87.120,244.833 87.361 C 249.606 88.209,252.742 87.595,256.083 85.158 C 257.073 84.436,258.405 82.986,258.761 82.243 C 259.010 81.721,259.061 85.376,258.825 86.917 C 258.713 87.650,258.482 88.528,258.311 88.868 C 258.140 89.208,258.000 89.561,258.000 89.653 C 258.000 90.026,256.008 92.649,255.717 92.660 C 255.607 92.663,255.457 92.761,255.383 92.877 C 255.170 93.212,253.994 93.908,253.000 94.287 C 249.351 95.676,245.359 95.268,240.192 92.976 C 238.834 92.374,237.339 93.939,238.417 94.833 C 238.554 94.947,238.667 95.136,238.667 95.253 C 238.667 97.268,247.133 99.126,251.969 98.173 C 253.563 97.859,253.999 97.711,255.667 96.921 C 258.991 95.347,261.276 92.432,262.267 88.500 L 262.667 86.917 262.667 72.946 L 262.667 58.974 262.179 58.487 C 261.774 58.081,261.556 58.000,260.875 58.000 C 259.461 58.000,259.005 58.798,258.990 61.303 C 258.982 62.621,258.944 62.858,258.782 62.599 C 258.485 62.123,256.653 60.287,256.100 59.912 C 255.834 59.731,255.422 59.453,255.183 59.294 C 252.479 57.491,247.966 56.824,244.667 57.739 M276.748 57.727 C 271.850 59.138,269.346 62.949,270.421 67.356 C 270.798 68.902,272.455 71.333,273.131 71.333 C 273.220 71.333,273.374 71.431,273.473 71.550 C 273.980 72.162,276.903 73.331,280.417 74.327 C 285.506 75.770,287.334 77.205,287.328 79.750 C 287.314 85.327,277.152 86.339,272.768 81.200 C 271.788 80.050,271.278 79.667,270.729 79.667 C 268.900 79.667,268.260 81.206,269.434 82.779 C 274.413 89.452,286.762 89.420,290.098 82.725 C 291.036 80.841,290.720 76.277,289.585 75.335 C 289.447 75.220,289.333 75.060,289.333 74.980 C 289.333 74.761,287.781 73.335,287.542 73.334 C 287.427 73.334,287.333 73.273,287.333 73.199 C 287.333 72.982,283.581 71.330,283.103 71.336 C 282.921 71.338,281.970 71.062,279.250 70.217 C 276.869 69.477,275.372 68.618,274.356 67.410 C 274.230 67.261,274.020 66.727,273.888 66.222 C 272.434 60.653,282.028 58.547,286.887 63.369 C 288.616 65.084,291.082 63.316,289.625 61.407 C 289.022 60.616,288.393 60.000,288.189 60.000 C 288.085 60.000,288.000 59.936,288.000 59.858 C 288.000 59.499,285.587 58.292,283.750 57.733 C 282.117 57.236,278.462 57.233,276.748 57.727 M340.083 57.600 C 339.625 57.739,339.025 57.913,338.750 57.985 C 337.491 58.314,334.795 60.082,333.799 61.230 C 333.551 61.516,333.246 61.862,333.121 62.000 C 327.527 68.155,329.064 81.116,335.917 85.567 C 337.295 86.462,337.541 86.591,338.583 86.958 C 343.608 88.728,348.121 87.706,351.869 83.948 L 353.333 82.480 353.333 84.257 L 353.333 86.033 353.900 86.600 C 354.836 87.536,356.323 87.314,356.925 86.150 C 357.279 85.466,357.287 59.945,356.934 59.100 C 356.403 57.829,354.757 57.557,353.851 58.589 C 353.345 59.165,353.333 59.217,353.328 60.881 L 353.323 62.583 352.900 62.083 C 350.922 59.744,349.436 58.709,346.750 57.800 C 345.396 57.341,341.331 57.219,340.083 57.600 M365.750 57.797 C 365.007 58.435,365.000 58.539,365.003 68.300 C 365.007 79.493,365.140 80.812,366.521 83.335 C 368.856 87.601,375.850 89.135,380.750 86.456 C 380.933 86.356,381.233 86.194,381.417 86.095 C 382.284 85.630,383.360 84.767,384.141 83.913 L 385.000 82.973 385.000 83.850 C 385.000 86.036,384.475 88.669,383.790 89.917 C 383.690 90.100,383.527 90.402,383.429 90.589 C 381.645 93.969,376.956 95.842,372.616 94.909 C 371.437 94.655,370.762 94.405,368.726 93.470 C 367.196 92.767,366.345 92.918,365.906 93.969 C 365.245 95.549,365.830 96.262,368.859 97.571 C 370.273 98.182,372.933 98.540,375.405 98.452 C 382.134 98.214,386.579 94.781,388.193 88.575 L 388.581 87.083 388.629 72.864 L 388.677 58.644 388.105 58.072 C 387.194 57.160,385.791 57.287,385.252 58.330 C 385.037 58.746,384.999 60.111,384.994 67.700 C 384.987 78.507,385.014 78.316,383.186 80.706 C 381.157 83.358,377.911 84.676,374.590 84.196 C 371.487 83.748,370.061 82.484,369.102 79.333 C 368.792 78.316,368.768 77.641,368.712 68.300 L 368.652 58.351 368.147 57.925 C 367.530 57.406,366.283 57.340,365.750 57.797 M183.583 61.105 C 193.264 63.396,194.219 79.638,184.908 83.621 C 182.910 84.475,179.534 84.487,177.760 83.645 C 177.399 83.473,177.047 83.333,176.977 83.333 C 176.418 83.333,173.963 81.124,173.209 79.942 C 171.637 77.478,171.257 76.031,171.257 72.500 C 171.256 68.879,171.535 67.824,173.215 65.088 C 175.212 61.837,179.582 60.158,183.583 61.105 M251.250 61.170 C 257.741 62.837,261.383 71.437,258.254 77.709 C 258.114 77.989,258.000 78.283,258.000 78.363 C 258.000 78.492,257.347 79.564,256.917 80.140 C 256.551 80.629,254.432 82.667,254.288 82.667 C 254.204 82.667,253.936 82.804,253.692 82.972 C 252.210 83.993,249.432 84.504,247.115 84.181 C 236.673 82.726,234.527 66.403,244.173 61.807 C 246.475 60.710,248.683 60.511,251.250 61.170 M313.583 61.127 C 315.984 61.755,318.243 63.486,319.396 65.583 C 319.547 65.858,319.736 66.196,319.817 66.333 C 321.374 69.006,321.658 74.976,320.346 77.463 C 320.262 77.621,319.993 78.157,319.746 78.655 C 316.404 85.410,307.182 86.286,303.215 80.225 C 297.047 70.801,303.703 58.542,313.583 61.127 M345.917 61.125 C 346.883 61.378,348.274 61.988,348.798 62.389 C 349.302 62.776,351.255 64.758,351.452 65.083 C 353.458 68.401,353.988 71.028,353.418 74.827 C 353.173 76.455,353.042 76.868,352.218 78.626 C 348.965 85.559,339.634 86.307,335.463 79.968 C 333.090 76.361,332.600 70.688,334.353 67.109 C 334.525 66.757,334.667 66.404,334.667 66.326 C 334.667 65.822,337.357 62.667,337.787 62.667 C 337.904 62.667,338.000 62.610,338.000 62.542 C 338.001 62.346,339.654 61.534,340.667 61.231 C 342.625 60.647,343.980 60.619,345.917 61.125 M69.850 77.243 C 69.008 77.725,68.670 78.861,68.668 81.208 L 68.667 83.333 65.327 83.333 L 61.987 83.333 61.285 83.988 L 60.583 84.642 60.500 88.696 C 60.387 94.194,60.469 94.506,61.893 93.967 C 63.173 93.483,64.498 93.007,65.275 92.753 C 65.655 92.628,66.195 92.408,66.475 92.263 C 66.754 92.118,67.100 92.000,67.244 92.000 C 67.387 92.000,67.822 91.860,68.210 91.688 C 69.328 91.194,70.208 91.000,71.333 91.000 C 72.458 91.000,73.339 91.194,74.457 91.688 C 74.845 91.860,75.280 92.000,75.423 92.000 C 75.566 92.000,75.912 92.118,76.192 92.263 C 76.472 92.408,77.012 92.628,77.392 92.753 C 78.172 93.009,79.477 93.477,80.831 93.988 C 81.334 94.178,81.840 94.333,81.956 94.333 C 82.121 94.333,82.167 93.348,82.167 89.828 C 82.167 84.847,82.122 84.579,81.151 83.762 L 80.589 83.290 77.170 83.353 L 73.750 83.417 73.667 80.877 L 73.583 78.338 72.964 77.719 C 72.258 77.013,70.674 76.771,69.850 77.243 M36.255 88.580 L 35.944 90.162 35.365 90.271 C 35.047 90.330,34.038 90.338,33.123 90.288 L 31.460 90.196 31.544 90.940 C 31.655 91.928,31.611 91.905,33.574 92.000 L 35.289 92.083 34.472 93.750 C 33.477 95.781,33.156 96.333,32.312 97.458 C 31.440 98.621,31.411 98.737,31.909 99.063 C 32.659 99.554,33.239 99.583,33.466 99.139 C 33.738 98.605,34.061 98.100,34.195 97.998 C 34.352 97.879,36.667 93.293,36.667 93.102 C 36.667 92.208,37.230 91.686,38.403 91.492 C 40.577 91.133,40.667 91.083,40.667 90.232 C 40.667 89.303,40.501 89.236,39.261 89.663 C 37.884 90.137,37.649 90.117,37.821 89.542 C 38.073 88.702,38.370 87.314,38.310 87.263 C 38.277 87.235,37.871 87.164,37.408 87.105 L 36.566 86.997 36.255 88.580 M101.333 90.321 C 101.333 91.922,101.111 95.081,100.816 97.690 C 100.601 99.582,100.058 100.500,99.155 100.500 L 98.667 100.500 98.667 102.583 L 98.667 104.667 99.500 104.667 L 100.333 104.667 100.333 103.417 L 100.333 102.167 105.000 102.167 L 109.667 102.167 109.667 103.417 L 109.667 104.667 110.500 104.667 L 111.333 104.667 111.333 102.583 L 111.333 100.500 110.585 100.500 L 109.838 100.500 109.794 94.708 L 109.750 88.917 105.542 88.872 L 101.333 88.828 101.333 90.321 M42.425 90.187 C 41.812 90.916,41.881 91.080,43.042 91.656 C 43.615 91.940,44.383 92.396,44.750 92.671 C 45.117 92.945,45.548 93.215,45.708 93.271 C 45.869 93.326,46.000 93.438,46.000 93.519 C 46.000 93.899,46.501 93.598,46.919 92.967 L 47.382 92.267 47.005 92.009 C 46.378 91.578,45.441 91.014,45.000 90.801 C 44.771 90.690,44.396 90.480,44.167 90.333 C 43.115 89.661,42.884 89.642,42.425 90.187 M108.000 95.583 L 108.000 100.500 104.982 100.500 C 102.172 100.500,101.973 100.480,102.088 100.208 C 102.529 99.169,102.653 98.635,102.662 97.750 C 102.667 97.200,102.781 95.475,102.915 93.917 C 103.050 92.358,103.161 90.990,103.163 90.875 C 103.166 90.718,103.763 90.667,105.583 90.667 L 108.000 90.667 108.000 95.583 M69.667 92.268 C 68.906 92.600,67.404 93.149,66.667 93.364 C 66.346 93.458,66.008 93.593,65.917 93.663 C 65.825 93.734,65.375 93.907,64.917 94.047 C 63.592 94.452,61.797 95.152,61.378 95.426 C 60.886 95.749,57.458 97.008,56.866 97.084 C 55.744 97.228,54.785 98.004,54.601 98.917 C 54.494 99.453,54.754 100.248,58.089 109.583 C 58.515 110.775,59.112 112.462,59.416 113.333 C 59.968 114.916,59.968 114.917,60.609 115.019 C 61.313 115.132,61.729 115.278,64.526 116.397 C 69.105 118.228,73.741 118.152,77.922 116.177 C 78.499 115.904,79.638 115.481,80.452 115.237 L 81.932 114.794 82.729 112.522 C 83.168 111.272,83.664 109.875,83.833 109.417 C 86.146 103.135,87.167 100.144,87.167 99.645 C 87.167 98.417,86.347 97.567,84.689 97.074 C 84.227 96.937,83.735 96.711,83.596 96.572 C 83.368 96.344,82.821 96.123,80.750 95.420 C 80.383 95.295,79.558 94.993,78.917 94.749 C 78.275 94.504,77.450 94.201,77.083 94.075 C 76.717 93.950,75.892 93.650,75.250 93.410 C 74.608 93.169,73.783 92.873,73.417 92.751 C 73.050 92.629,72.471 92.411,72.130 92.265 C 71.358 91.935,70.427 91.936,69.667 92.268 M41.095 94.958 C 41.149 96.127,41.220 97.168,41.251 97.271 C 41.289 97.400,40.884 97.452,39.945 97.437 C 36.940 97.392,35.224 98.906,35.829 101.069 C 36.671 104.075,42.544 103.818,42.797 100.764 C 42.860 100.014,42.919 99.876,43.145 99.957 C 43.580 100.115,44.740 100.939,45.179 101.402 C 45.660 101.909,45.865 101.937,46.085 101.529 C 46.780 100.243,46.775 100.364,46.157 99.849 C 45.844 99.588,44.977 99.051,44.229 98.656 C 42.647 97.819,42.667 97.870,42.667 94.643 L 42.667 92.833 41.831 92.833 L 40.995 92.833 41.095 94.958 M40.708 99.009 C 41.471 99.221,41.566 99.890,40.958 100.777 C 40.360 101.652,38.574 101.748,37.708 100.953 C 36.433 99.782,38.551 98.410,40.708 99.009 " stroke="none" fill="#040404" fill-rule="evenodd"></path><path id="path4" d="M43.833 65.885 C 43.833 65.914,44.077 66.158,44.375 66.427 L 44.917 66.917 44.427 66.375 C 43.971 65.870,43.833 65.757,43.833 65.885 M45.000 67.091 C 45.000 67.148,45.266 67.518,45.590 67.914 L 46.181 68.635 45.465 68.749 C 45.072 68.812,44.431 68.940,44.042 69.035 L 43.333 69.206 43.333 70.696 C 43.333 71.836,43.285 72.156,43.127 72.059 C 42.927 71.935,43.474 72.720,45.003 74.750 C 48.045 78.788,52.007 85.616,54.336 90.833 C 55.409 93.236,56.667 96.432,56.667 96.755 C 56.667 96.890,56.773 97.000,56.903 97.000 C 57.301 97.000,61.333 95.474,61.333 95.323 C 61.333 95.067,60.949 94.333,60.814 94.333 C 60.741 94.333,60.636 94.052,60.580 93.708 C 60.296 91.971,56.933 84.732,54.249 80.083 C 51.793 75.827,45.000 66.286,45.000 67.091 M42.137 70.962 C 42.442 71.347,42.779 71.716,42.887 71.783 C 42.995 71.850,42.834 71.589,42.529 71.204 C 42.225 70.819,41.887 70.450,41.779 70.384 C 41.672 70.317,41.833 70.577,42.137 70.962 M73.859 71.333 C 73.859 71.471,73.960 71.846,74.083 72.167 C 74.207 72.487,74.308 72.637,74.308 72.500 C 74.308 72.362,74.207 71.987,74.083 71.667 C 73.960 71.346,73.859 71.196,73.859 71.333 M96.333 72.042 C 96.087 72.377,96.047 72.493,96.227 72.347 C 96.501 72.125,96.914 71.500,96.787 71.500 C 96.755 71.500,96.551 71.744,96.333 72.042 M69.800 74.084 C 69.940 74.588,70.081 74.974,70.114 74.942 C 70.212 74.843,69.784 73.167,69.660 73.167 C 69.597 73.167,69.659 73.579,69.800 74.084 M99.500 73.337 C 98.092 73.446,96.405 73.888,94.750 74.583 L 94.417 74.723 94.750 74.323 C 94.984 74.041,94.999 73.988,94.799 74.142 C 94.067 74.708,90.426 80.533,88.585 84.083 C 87.699 85.793,87.196 86.884,85.743 90.250 C 85.189 91.533,84.282 93.998,84.087 94.750 C 83.968 95.208,83.789 95.788,83.690 96.039 C 83.483 96.564,83.541 96.612,84.974 97.080 C 86.582 97.605,87.448 98.748,87.231 100.061 C 87.066 101.061,87.474 100.104,88.086 98.063 C 88.411 96.974,88.818 95.708,88.990 95.250 C 91.328 88.997,93.564 84.500,96.657 79.833 C 98.332 77.305,98.528 77.033,100.042 75.138 C 101.224 73.658,101.542 73.126,101.208 73.191 C 101.140 73.204,100.371 73.270,99.500 73.337 M74.511 73.918 C 74.505 74.010,74.570 74.329,74.655 74.626 C 74.740 74.923,74.795 75.167,74.776 75.167 C 74.758 75.167,74.182 74.951,73.496 74.688 C 71.330 73.856,71.287 73.857,70.668 74.774 C 70.189 75.484,70.148 75.636,70.275 76.239 L 70.417 76.911 71.300 76.929 C 73.207 76.969,73.733 77.807,73.807 80.929 L 73.865 83.333 75.017 83.333 L 76.169 83.333 76.071 82.125 C 76.018 81.460,75.861 80.242,75.724 79.417 C 75.587 78.592,75.404 77.439,75.318 76.856 C 75.233 76.272,75.119 75.724,75.065 75.637 C 75.012 75.551,74.931 75.249,74.887 74.968 C 74.799 74.407,74.527 73.650,74.511 73.918 M86.457 102.379 C 86.123 103.316,85.631 104.696,85.364 105.445 C 84.851 106.878,84.873 106.981,85.697 106.998 C 85.759 106.999,85.933 106.419,86.083 105.708 C 86.233 104.998,86.540 103.600,86.766 102.602 C 87.287 100.297,87.216 100.245,86.457 102.379 " stroke="none" fill="#754021" fill-rule="evenodd"></path><path id="path5" d="M55.375 114.948 C 55.535 114.990,55.798 114.990,55.958 114.948 C 56.119 114.906,55.987 114.872,55.667 114.872 C 55.346 114.872,55.215 114.906,55.375 114.948 M85.960 114.951 C 86.168 114.991,86.468 114.990,86.627 114.948 C 86.786 114.906,86.617 114.874,86.250 114.875 C 85.883 114.877,85.753 114.911,85.960 114.951 M42.125 117.784 C 42.331 117.824,42.669 117.824,42.875 117.784 C 43.081 117.745,42.913 117.712,42.500 117.712 C 42.087 117.712,41.919 117.745,42.125 117.784 M45.625 117.784 C 45.831 117.824,46.169 117.824,46.375 117.784 C 46.581 117.745,46.413 117.712,46.000 117.712 C 45.587 117.712,45.419 117.745,45.625 117.784 M95.625 117.784 C 95.831 117.824,96.169 117.824,96.375 117.784 C 96.581 117.745,96.412 117.712,96.000 117.712 C 95.587 117.712,95.419 117.745,95.625 117.784 M98.792 117.784 C 98.998 117.824,99.335 117.824,99.542 117.784 C 99.748 117.745,99.579 117.712,99.167 117.712 C 98.754 117.712,98.585 117.745,98.792 117.784 " stroke="none" fill="#90b4ae" fill-rule="evenodd"></path><path id="path6" d="M68.958 117.784 C 69.165 117.824,69.502 117.824,69.708 117.784 C 69.915 117.745,69.746 117.712,69.333 117.712 C 68.921 117.712,68.752 117.745,68.958 117.784 " stroke="none" fill="#324f5f" fill-rule="evenodd"></path><path id="path7" d="M42.958 65.784 C 43.165 65.824,43.502 65.824,43.708 65.784 C 43.915 65.745,43.746 65.712,43.333 65.712 C 42.921 65.712,42.752 65.745,42.958 65.784 M40.356 66.708 C 40.375 67.167,40.391 67.186,40.456 66.833 C 40.499 66.604,40.620 66.362,40.725 66.294 C 40.848 66.216,40.812 66.171,40.625 66.169 C 40.402 66.167,40.339 66.294,40.356 66.708 M71.917 70.333 C 72.100 70.412,72.362 70.477,72.500 70.477 C 72.658 70.477,72.627 70.424,72.417 70.333 C 72.233 70.255,71.971 70.190,71.833 70.190 C 71.676 70.190,71.707 70.243,71.917 70.333 M98.208 70.789 C 98.644 70.824,99.356 70.824,99.792 70.789 C 100.227 70.755,99.871 70.727,99.000 70.727 C 98.129 70.727,97.773 70.755,98.208 70.789 M101.372 72.667 C 101.372 72.987,101.406 73.119,101.448 72.958 C 101.490 72.798,101.490 72.535,101.448 72.375 C 101.406 72.215,101.372 72.346,101.372 72.667 " stroke="none" fill="#3f5a21" fill-rule="evenodd"></path><path id="path8" d="M42.000 65.945 C 40.810 66.155,40.545 66.328,40.439 66.964 C 40.269 67.996,40.320 68.629,40.595 68.905 C 40.739 69.049,40.813 69.167,40.759 69.167 C 40.705 69.167,40.872 69.373,41.130 69.625 C 41.388 69.877,41.441 69.971,41.248 69.833 C 41.055 69.696,41.164 69.834,41.490 70.141 C 41.816 70.448,42.063 70.773,42.038 70.862 C 42.012 70.952,42.057 70.985,42.136 70.936 C 42.215 70.887,42.452 71.079,42.663 71.364 C 42.873 71.648,42.941 71.827,42.814 71.761 C 42.687 71.696,42.733 71.763,42.917 71.912 C 43.245 72.178,43.251 72.159,43.298 70.685 L 43.346 69.188 44.298 68.990 C 46.017 68.632,46.168 68.585,46.167 68.417 C 46.167 68.325,46.089 68.250,45.994 68.250 C 45.786 68.250,45.493 67.813,45.592 67.652 C 45.631 67.589,45.533 67.436,45.373 67.311 C 45.105 67.100,45.102 67.108,45.333 67.417 C 45.565 67.726,45.562 67.733,45.292 67.521 C 45.131 67.395,45.000 67.226,45.000 67.144 C 45.000 67.062,44.790 66.790,44.532 66.539 C 44.275 66.289,44.219 66.196,44.407 66.333 C 44.742 66.577,44.743 66.575,44.458 66.237 C 44.165 65.889,43.064 65.758,42.000 65.945 M70.519 71.341 C 69.876 72.382,69.409 74.179,69.852 73.905 C 70.017 73.803,70.161 74.735,70.048 75.168 C 69.905 75.714,70.247 75.464,70.766 74.641 C 71.260 73.859,71.386 73.864,73.628 74.748 C 74.435 75.066,74.924 75.193,74.809 75.054 C 74.700 74.923,74.613 74.463,74.616 74.033 C 74.619 73.602,74.547 73.156,74.457 73.042 C 74.366 72.927,74.358 72.832,74.438 72.831 C 74.518 72.829,74.479 72.762,74.352 72.682 C 74.225 72.601,74.112 72.310,74.102 72.034 C 74.092 71.758,74.015 71.575,73.932 71.626 C 73.849 71.677,73.822 71.560,73.873 71.367 C 73.950 71.073,73.850 70.974,73.274 70.769 C 72.335 70.437,71.472 70.167,71.347 70.167 C 71.290 70.167,70.917 70.695,70.519 71.341 M97.215 70.977 C 97.234 71.036,97.175 71.113,97.083 71.149 C 96.992 71.185,96.829 71.423,96.722 71.678 C 96.614 71.933,96.338 72.265,96.108 72.416 C 95.878 72.566,95.559 72.891,95.399 73.137 C 95.116 73.572,95.117 73.578,95.429 73.357 C 95.606 73.232,95.487 73.373,95.167 73.670 C 94.846 73.967,94.696 74.150,94.833 74.077 C 94.988 73.994,94.957 74.091,94.750 74.333 L 94.417 74.723 94.750 74.583 C 96.354 73.909,98.066 73.454,99.247 73.388 C 101.382 73.269,101.333 73.293,101.333 72.319 C 101.333 70.854,101.272 70.814,99.080 70.844 C 98.034 70.859,97.195 70.919,97.215 70.977 M72.500 77.219 C 72.500 77.248,72.744 77.491,73.042 77.760 L 73.583 78.250 73.094 77.708 C 72.638 77.203,72.500 77.090,72.500 77.219 M73.742 81.208 L 73.750 83.417 75.000 83.429 L 76.250 83.442 75.046 83.380 L 73.843 83.319 73.789 81.159 L 73.735 79.000 73.742 81.208 M70.542 117.788 C 70.885 117.824,71.448 117.824,71.792 117.788 C 72.135 117.752,71.854 117.723,71.167 117.723 C 70.479 117.723,70.198 117.752,70.542 117.788 " stroke="none" fill="#34260d" fill-rule="evenodd"></path></g></svg>